REM DIRINDEX 1\2\4,1\2\5,1\3\6,1\3\7,1\3\8
REM DIRNAME folder01,folder02,folder03,folder04,folder05,folder06,folder07,folder08
TITLE ""
FILE "LV3_054_WORDS.mp3" MP3
  TRACK 01 AUDIO
    TITLE "0:"
    INDEX 01 00:00:00
  TRACK 02 AUDIO
    TITLE "6:cjc094_1931"
    INDEX 01 00:00:01
  TRACK 03 AUDIO
    TITLE "0:"
    INDEX 01 00:02:20
  TRACK 04 AUDIO
    TITLE "7:cjc094_1932"
    INDEX 01 00:03:06
  TRACK 05 AUDIO
    TITLE "0:"
    INDEX 01 00:04:03
  TRACK 06 AUDIO
    TITLE "8:cjc094_1933"
    INDEX 01 00:04:15
  TRACK 07 AUDIO
    TITLE "0:"
    INDEX 01 00:05:18
  TRACK 08 AUDIO
    TITLE "7:cjc094_1934"
    INDEX 01 00:05:65
  TRACK 09 AUDIO
    TITLE "0:"
    INDEX 01 00:06:63
  TRACK 10 AUDIO
    TITLE "8:cjc094_1935"
    INDEX 01 00:07:03
  TRACK 11 AUDIO
    TITLE "0:"
    INDEX 01 00:08:34
  TRACK 12 AUDIO
    TITLE "7:cjc094_1936"
    INDEX 01 00:08:72
  TRACK 13 AUDIO
    TITLE "0:"
    INDEX 01 00:09:69
  TRACK 14 AUDIO
    TITLE "8:cjc094_1937"
    INDEX 01 00:10:12
  TRACK 15 AUDIO
    TITLE "0:"
    INDEX 01 00:11:21
  TRACK 16 AUDIO
    TITLE "7:cjc094_1938"
    INDEX 01 00:11:66
  TRACK 17 AUDIO
    TITLE "0:"
    INDEX 01 00:12:63
  TRACK 18 AUDIO
    TITLE "8:cjc094_1939"
    INDEX 01 00:13:08
  TRACK 19 AUDIO
    TITLE "0:"
    INDEX 01 00:17:72
  TRACK 20 AUDIO
    TITLE "7:cjc094_1940"
    INDEX 01 00:18:46
  TRACK 21 AUDIO
    TITLE "0:"
    INDEX 01 00:19:38
  TRACK 22 AUDIO
    TITLE "8:cjc094_1941"
    INDEX 01 00:19:58
  TRACK 23 AUDIO
    TITLE "0:"
    INDEX 01 00:20:71
  TRACK 24 AUDIO
    TITLE "7:cjc094_1942"
    INDEX 01 00:21:49
  TRACK 25 AUDIO
    TITLE "0:"
    INDEX 01 00:22:46
  TRACK 26 AUDIO
    TITLE "8:cjc094_1943"
    INDEX 01 00:22:64
  TRACK 27 AUDIO
    TITLE "0:"
    INDEX 01 00:27:26
  TRACK 28 AUDIO
    TITLE "7:cjc094_1944"
    INDEX 01 00:27:73
  TRACK 29 AUDIO
    TITLE "0:"
    INDEX 01 00:29:09
  TRACK 30 AUDIO
    TITLE "8:cjc094_1945"
    INDEX 01 00:29:29
  TRACK 31 AUDIO
    TITLE "0:"
    INDEX 01 00:31:00
  TRACK 32 AUDIO
    TITLE "7:cjc094_1946"
    INDEX 01 00:31:47
  TRACK 33 AUDIO
    TITLE "0:"
    INDEX 01 00:32:66
  TRACK 34 AUDIO
    TITLE "8:cjc094_1947"
    INDEX 01 00:33:11
  TRACK 35 AUDIO
    TITLE "0:"
    INDEX 01 00:34:26
  TRACK 36 AUDIO
    TITLE "7:cjc094_1948"
    INDEX 01 00:34:71
  TRACK 37 AUDIO
    TITLE "0:"
    INDEX 01 00:36:11
  TRACK 38 AUDIO
    TITLE "8:cjc094_1949"
    INDEX 01 00:36:33
  TRACK 39 AUDIO
    TITLE "0:"
    INDEX 01 00:37:61
  TRACK 40 AUDIO
    TITLE "7:cjc094_1950"
    INDEX 01 00:38:37
  TRACK 41 AUDIO
    TITLE "0:"
    INDEX 01 00:39:35
  TRACK 42 AUDIO
    TITLE "8:cjc094_1951"
    INDEX 01 00:39:56
  TRACK 43 AUDIO
    TITLE "0:"
    INDEX 01 00:41:00
  TRACK 44 AUDIO
    TITLE "7:cjc094_1952"
    INDEX 01 00:41:42
  TRACK 45 AUDIO
    TITLE "0:"
    INDEX 01 00:42:45
  TRACK 46 AUDIO
    TITLE "8:cjc094_1953"
    INDEX 01 00:42:61
  TRACK 47 AUDIO
    TITLE "0:"
    INDEX 01 00:44:65
  TRACK 48 AUDIO
    TITLE "7:cjc094_1954"
    INDEX 01 00:45:33
  TRACK 49 AUDIO
    TITLE "0:"
    INDEX 01 00:46:45
  TRACK 50 AUDIO
    TITLE "8:cjc094_1955"
    INDEX 01 00:46:64
  TRACK 51 AUDIO
    TITLE "0:"
    INDEX 01 00:49:35
  TRACK 52 AUDIO
    TITLE "7:cjc094_1956"
    INDEX 01 00:50:11
  TRACK 53 AUDIO
    TITLE "0:"
    INDEX 01 00:51:22
  TRACK 54 AUDIO
    TITLE "8:cjc094_1957"
    INDEX 01 00:51:38
  TRACK 55 AUDIO
    TITLE "0:"
    INDEX 01 00:53:33
  TRACK 56 AUDIO
    TITLE "7:cjc094_1958"
    INDEX 01 00:54:05
  TRACK 57 AUDIO
    TITLE "0:"
    INDEX 01 00:55:22
  TRACK 58 AUDIO
    TITLE "8:cjc094_1959"
    INDEX 01 00:55:40
  TRACK 59 AUDIO
    TITLE "0:"
    INDEX 01 00:56:39
